<?xml version="1.0" encoding="UTF-8"?>
<svg width="286px" height="26px" viewBox="0 0 286 26" version="1.1" xmlns="http://www.w3.org/2000/svg" xmlns:xlink="http://www.w3.org/1999/xlink">
    <!-- Generator: Sketch 53 (72520) - https://sketchapp.com -->
    <title>logo-linktree</title>
    <desc>Created with Sketch.</desc>
    <g id="Page-1" stroke="none" stroke-width="1" fill="none" fill-rule="evenodd">
        <g id="logo-linktree" fill-rule="nonzero">
            <g id="Group">
                <g fill="#000000">
                    <path d="M39.426,2.975 L37.526,2.975 C37.126,2.975 36.926,3.275 36.926,3.575 L36.926,24.375 C36.926,24.775 37.226,24.975 37.526,25.075 L39.425,25.075 C39.826,25.075 40.026,24.775 40.026,24.475 L40.026,3.575 C40.026,3.175 39.726,2.975 39.426,2.975 Z" id="Path"></path>
                    <path d="M46.826,2.875 L44.726,2.875 C44.326,2.875 44.126,3.175 44.126,3.475 L44.126,5.475 C44.126,5.875 44.326,6.075 44.726,6.075 L46.826,6.075 C47.226,6.075 47.426,5.775 47.426,5.475 L47.426,3.475 C47.426,3.075 47.126,2.875 46.826,2.875 Z" id="Path"></path>
                    <path d="M46.626,8.975 L44.826,8.975 C44.526,8.975 44.226,9.275 44.226,9.575 L44.226,24.375 C44.226,24.775 44.526,24.975 44.826,25.075 L46.626,25.075 C47.027,25.075 47.226,24.775 47.226,24.475 L47.226,9.575 C47.226,9.175 46.926,8.975 46.626,8.975 Z" id="Path"></path>
                    <path d="M57.626,8.675 L57.526,8.675 C56.026,9.075 55.026,9.775 54.426,10.575 L54.326,10.575 L54.326,9.575 C54.326,9.175 54.026,8.975 53.726,8.975 L51.926,8.975 C51.526,8.975 51.326,9.275 51.326,9.575 L51.326,24.375 C51.326,24.775 51.526,24.975 51.925,25.071 L53.725,25.071 C54.126,25.071 54.326,24.771 54.326,24.471 L54.326,14.971 C54.326,13.872 54.626,12.971 55.326,12.271 C56.026,11.571 57.026,11.271 58.126,11.271 C60.425,11.271 61.526,12.673 61.526,15.372 L61.526,24.473 C61.526,24.875 61.826,25.074 62.126,25.074 L63.926,25.074 C64.327,25.074 64.527,24.773 64.527,24.473 L64.527,14.574 C64.527,12.675 63.926,11.275 62.926,10.175 C61.726,8.875 59.926,8.375 57.626,8.675 Z" id="Path"></path>
                    <path d="M75.826,15.775 C75.626,15.575 75.626,15.275 75.826,15.075 L80.425,9.875 C80.726,9.575 80.526,8.975 80.026,8.975 L77.726,8.975 C77.626,8.975 77.426,9.075 77.426,9.275 L71.126,16.175 L71.026,16.175 L71.026,3.575 C71.026,3.175 70.726,2.975 70.426,2.975 L68.626,2.975 C68.226,2.975 68.026,3.275 68.026,3.575 L68.026,24.375 L68.026,24.375 C68.026,24.775 68.326,24.975 68.626,25.175 L70.426,25.175 C70.826,25.175 71.026,24.875 71.026,24.575 L71.026,19.975 C71.026,19.775 71.026,19.677 71.126,19.575 L73.226,17.275 L73.326,17.275 L78.426,24.875 C78.528,24.973 78.727,25.074 78.926,25.074 L80.926,25.074 C81.426,25.074 81.626,24.574 81.426,24.175 L75.826,15.775 Z" id="Path"></path>
                    <path d="M91.527,8.975 L88.127,8.975 L88.127,5.675 C88.127,5.275 87.827,5.075 87.527,5.075 L85.827,5.075 C85.425,5.075 85.226,5.375 85.226,5.675 L85.226,8.975 L83.326,8.975 C83.026,8.975 82.826,9.275 82.724,9.575 L82.724,10.975 C82.724,11.375 83.026,11.575 83.326,11.575 L85.126,11.575 L85.126,19.975 C85.126,21.675 85.526,22.875 86.227,23.876 C87.028,24.677 88.227,25.075 89.926,25.075 L90.826,25.075 C91.227,25.075 91.426,24.775 91.426,24.475 L91.426,22.775 C91.426,22.375 91.126,22.175 90.826,22.175 L90.126,22.175 C89.326,22.175 88.826,21.975 88.527,21.574 C88.227,21.175 88.127,20.574 88.127,19.675 L88.127,11.575 L91.527,11.575 C91.928,11.575 92.127,11.275 92.127,10.975 L92.127,9.575 C92.127,9.175 91.827,8.975 91.527,8.975 Z" id="Path"></path>
                    <path d="M102.525,8.875 C102.223,8.775 101.825,8.775 101.525,8.775 C100.825,8.775 100.226,8.875 99.625,9.275 C99.027,9.675 98.527,10.175 98.226,10.775 L98.126,10.775 L98.126,9.575 C98.126,9.175 97.826,8.975 97.526,8.975 L95.826,8.975 C95.526,8.975 95.326,9.275 95.326,9.575 L95.326,24.375 C95.326,24.775 95.526,24.975 95.826,24.876 L97.727,24.876 C98.128,24.876 98.328,24.575 98.328,24.275 L98.328,15.475 C98.328,12.875 99.328,11.575 101.227,11.575 C101.528,11.575 101.727,11.675 101.926,11.675 C102.227,11.775 102.526,11.575 102.626,11.275 L102.926,9.475 C102.926,9.275 102.826,8.975 102.525,8.875 Z" id="Path"></path>
                    <path d="M111.429,8.173 C109.228,8.173 107.529,8.973 106.128,10.473 C104.727,11.973 104.028,13.973 104.028,16.574 C104.028,19.074 104.728,21.175 106.128,22.675 C107.528,24.175 109.328,24.975 111.528,24.975 C113.028,24.975 114.426,24.574 115.528,23.875 C116.429,23.175 117.227,22.375 117.828,21.475 C118.028,21.275 117.926,20.975 117.727,20.775 L116.426,19.775 C116.126,19.575 115.726,19.675 115.53,20.075 C115.429,20.175 115.33,20.375 115.228,20.475 C115.03,20.675 114.828,20.975 114.429,21.375 C114.128,21.675 113.628,21.975 113.128,22.175 C112.628,22.375 112.028,22.475 111.328,22.475 C109.929,22.475 108.929,21.975 108.128,21.075 C107.528,20.277 107.128,19.277 107.028,18.177 C107.028,17.876 107.328,17.575 107.628,17.575 L118.028,17.575 C118.429,17.575 118.628,17.275 118.628,16.975 L118.628,16.673 C118.628,14.074 117.929,11.973 116.628,10.473 C115.328,8.973 113.53,8.173 111.429,8.173 Z M107.026,15.075 C107.026,13.975 107.426,12.975 108.224,12.075 C108.926,11.175 110.026,10.675 111.326,10.675 C112.724,10.675 113.826,11.075 114.526,11.975 C115.227,12.775 115.526,13.876 115.626,15.075 C115.626,15.075 107.026,15.075 107.026,15.075 Z" id="Shape"></path>
                    <path d="M134.028,10.473 C132.727,8.973 130.929,8.173 128.828,8.173 C126.628,8.173 124.926,8.973 123.528,10.473 C122.126,11.973 121.426,13.973 121.426,16.574 C121.426,19.074 122.128,21.175 123.528,22.675 C124.926,24.175 126.727,24.975 128.926,24.975 C130.426,24.975 131.826,24.574 132.926,23.875 C133.828,23.175 134.626,22.375 135.227,21.475 C135.426,21.275 135.326,20.975 135.126,20.775 L133.826,19.775 C133.526,19.575 133.126,19.675 132.926,20.075 C132.826,20.175 132.727,20.375 132.626,20.475 C132.426,20.675 132.224,20.975 131.826,21.375 C131.526,21.675 131.026,21.975 130.526,22.175 C130.026,22.375 129.425,22.475 128.724,22.475 C127.326,22.475 126.326,21.975 125.526,21.075 C124.925,20.277 124.526,19.277 124.425,18.177 C124.425,17.876 124.724,17.575 125.026,17.575 L135.426,17.575 C135.828,17.575 136.028,17.275 136.028,16.975 L136.028,16.673 C136.028,14.074 135.328,11.973 134.028,10.473 Z M124.426,15.075 C124.426,13.975 124.826,12.975 125.626,12.075 C126.328,11.175 127.426,10.675 128.727,10.675 C130.126,10.675 131.227,11.075 131.926,11.975 C132.628,12.775 132.926,13.876 133.028,15.075 C133.028,15.075 124.426,15.075 124.426,15.075 Z" id="Shape"></path>
                    <path d="M20.726,0.675 C20.226,-0.225 18.926,-0.225 18.426,0.675 L14.726,7.575 L19.526,16.273 C19.626,16.475 19.626,16.675 19.626,16.875 C19.526,17.475 19.026,17.975 18.326,17.975 L16.726,17.975 L16.726,23.875 C16.726,24.475 17.226,24.975 17.826,24.975 L21.425,24.975 C22.026,24.975 22.526,24.475 22.526,23.875 L22.526,17.975 L28.226,17.975 C29.126,17.975 29.726,17.075 29.326,16.275 L20.726,0.675 Z" id="Path"></path>
                    <path d="M8.726,0.675 L0.126,16.275 C-0.274,17.075 0.326,17.975 1.226,17.975 L6.926,17.975 L6.926,23.875 C6.926,24.475 7.426,24.975 8.027,24.975 L11.626,24.975 C12.226,24.975 12.726,24.475 12.726,23.875 L12.726,17.975 L11.126,17.975 C10.426,17.975 9.926,17.475 9.826,16.875 C9.826,16.675 9.826,16.475 9.926,16.273 L14.726,7.575 L11.026,0.675 C10.526,-0.225 9.226,-0.225 8.726,0.675 Z" id="Path"></path>
                </g>
                <polygon id="Path" fill="#1C1E1E" opacity="0.65" points="168.559 9.154 167.498 8.093 160.028 15.563 152.559 8.093 151.498 9.154 158.968 16.624 151.498 24.093 152.559 25.154 160.028 17.684 167.498 25.154 168.559 24.093 161.089 16.624"></polygon>
            </g>
            <g id="group" transform="translate(185.000000, 0.000000)" fill="#000000">
                <polygon id="Path" points="29.9349756 0.286413987 30.3647436 3.06505218 30.6225526 5.07025179 32.2552564 2.49213615 34.0313026 0.286413987 36.2083705 1.51817244 34.5756667 3.92441974 31.8542346 7.10409397 34.8047295 10.1118869 37.0677769 12.3749085 35.5781564 14.1796231 32.8282372 11.6874092 30.2215308 9.82543538 30.3359974 12.5181342 30.2787641 14.5806449 28.1876756 14.8098372 27.6433115 9.10929359 27.3282692 4.15358615 27.2422897 0.945262885"></polygon>
                <polygon id="Path" points="49.2135449 0.0286098038 49.58595 1.48954282 49.9009923 2.89318385 45.8046654 2.89318385 42.5391282 2.89318385 43.026 5.58588269 45.6614526 5.84369167 47.2083064 5.84369167 47.1510731 8.02075962 44.5156205 7.82023577 43.283809 7.76295064 43.4843846 9.53898385 43.5130013 11.572826 47.3229026 11.6874092 49.2993949 11.830635 49.6431833 14.3228359 47.5807115 14.3228359 43.2551923 14.2082397 40.7630821 14.5232821 40.4192936 8.02075962 40.1328679 3.92443269 39.5312705 0.91662809 42.9687667 0.601523628 47.2942859 0.171838551"></polygon>
                <polygon id="Path" points="0.487256372 0.286456718 3.55235128 0 3.58099385 2.46353244 3.52369577 7.53382308 3.83880282 10.8567231 7.16170282 11.2864133 10.1122106 11.2577578 10.1408662 14.0650269 10.1122106 14.95305 6.64608487 14.7526038 3.58099385 14.5806449 1.51849615 14.6092615 0.945587897 7.41923987 0.716421487 2.09112731"></polygon>
                <path d="M12.5470358,0.830679679 C13.291859,0.744742923 14.0366692,0.687455205 14.78135,0.601518449 L14.9245628,2.69264705 L15.3257141,5.87232128 C15.3829474,6.93221269 15.6121397,7.76295064 15.8413321,8.33585372 C16.0703949,8.96606782 16.2995872,9.53898385 16.7865885,10.0832444 C17.1303769,10.4842921 17.9324205,11.3436596 18.9350397,11.2004338 C19.7657,11.0858506 20.2813179,10.3410533 20.3959141,10.169185 C20.7683192,9.62491154 20.8256821,9.08063808 20.8542987,7.82023577 C20.8829154,5.90096385 20.8256821,4.29681192 20.7969359,3.40878885 C20.7683192,2.46348064 20.7397026,1.71869628 20.7110859,1.23171831 L23.1459628,1.08848995 L23.4037718,4.15358615 C23.5469846,5.41398846 23.5756013,6.44523731 23.5756013,7.21867718 C23.5756013,7.84887833 23.5756013,8.19262795 23.5469846,8.59366269 C23.4610051,9.30980449 23.5469846,9.82543538 23.00275,11.4868854 C22.3439192,13.4348128 22.0287474,13.6066423 21.599109,13.9790474 C21.083491,14.4660487 20.4818936,14.6092615 20.1954679,14.6666244 C18.276209,15.1248795 16.184991,14.0076641 14.9819256,12.7473006 C13.5782846,11.3150171 13.2058795,9.59626897 12.9766872,8.53637756 C12.8621428,8.04940218 12.8048447,7.59106936 12.7189041,6.10148769 C12.6043209,4.81242987 12.5470358,3.0077541 12.5470358,0.830679679 Z" id="Path"></path>
                <path d="M59.2396077,0.114518332 L56.6327718,0.458270667 L56.8047308,3.78116808 L56.9193269,7.33323449 C56.9193269,8.04938923 56.8905808,8.67959038 56.8619641,9.16656577 C56.8333474,9.91135013 56.7759846,10.4842662 56.5755385,11.1717654 C56.3463462,11.8879072 56.1745167,12.0597755 56.0599205,12.1170736 C55.5156859,12.4608232 54.7135128,12.0597755 54.6276628,12.0024904 C54.1406615,11.7446814 53.9400859,11.3722892 53.5104474,10.6274919 C53.2812551,10.2550997 52.9948295,9.71082628 52.7370205,8.99468449 L50.7031654,9.88270756 C50.7317821,10.0832314 50.8177615,10.3696829 50.9036115,10.7134326 C51.1901667,11.8306091 51.3047628,12.3748826 51.505209,12.7759303 C52.0494436,13.9218141 53.3672346,14.4086859 54.2838744,14.7238577 C55.2864936,15.0962628 56.2031333,15.4113051 57.2057526,15.0389 C58.6380103,14.5232821 59.1536282,13.0050449 59.2682244,12.6613471 C59.4688,12.0311329 59.4688,11.4582299 59.4400538,11.0858247 L59.4688,7.76292474 L59.3254577,4.72647628 L59.2396077,0.114518332 Z" id="Path"></path>
                <polygon id="Path" points="77.8306 1.03116597 80.2654769 0.630127346 80.4660526 4.21084538 80.4660526 6.64572231 83.1873551 6.64572231 83.072759 3.46604808 83.1873551 1.31762269 86.2238295 1.28897495 86.395659 7.07541256 86.5676179 14.0362808 84.5337628 14.5232821 84.2472077 11.6587278 83.9893987 9.19519538 81.8696936 9.36706372 80.4660526 9.36706372 80.3800731 12.2316438 80.2940936 14.2368564 78.088409 14.3514526 77.8306 9.08061218"></polygon>
                <polygon id="Path" points="90.1768141 1.26038288 92.8982462 0.945278423 93.9294821 3.17964833 95.5909321 6.50254833 97.2236359 9.9686741 96.8226141 5.52859756 96.6794013 1.03122165 96.6794013 0.401011436 99.3148538 0.54424109 99.773109 4.29682487 100.145514 8.67961628 100.030918 14.7524744 97.6820205 14.6666244 95.5909321 10.9426378 93.2132885 6.87494051 92.2680321 5.41401436 92.7549038 8.88014013 93.0700756 11.5155538 93.5284603 14.7524744 90.5492192 14.6666244 90.1768141 7.44785654 90.0909641 5.41401436"></polygon>
                <polygon id="Path" points="0.573204782 25.3226423 2.00548449 25.5518346 2.00548449 23.2601705 2.17736577 21.1117192 3.23725718 22.8877654 3.69559 23.5753423 4.61224269 22.4295103 5.67214705 20.9971231 6.01588372 23.2887872 6.44557397 25.4658551 7.849215 25.3800051 7.53410795 22.1717013 6.96120487 19.0492474 6.38828885 16.442541 5.07057551 18.7055885 4.09662474 20.5961013 3.63829192 21.3122949 2.72162628 19.2212064 1.11747306 17.2445846 0.773724744 20.1092295 0.573204782 23.4607462"></polygon>
                <polygon id="Path" points="15.6695026 16.9009256 15.8127154 18.7629513 17.2735897 18.7629513 18.4194218 18.6483551 18.4194218 21.1978282 18.276209 25.2941551 19.8516795 25.3801346 19.8516795 23.2030667 19.9950218 20.9114026 20.2240846 19.0781231 22.6589615 18.9061641 22.6589615 16.9009256 19.7658295 17.0155218"></polygon>
                <polygon id="Path" points="24.2631782 16.8149462 24.2631782 19.0206308 26.4402462 18.8774179 26.5260962 21.6847 26.32565 25.2940256 28.1016962 25.5518346 28.0157167 21.5987205 28.0443333 18.9633974 30.8803615 19.0206308 30.7657654 16.9867756 27.5860782 16.958159 25.0079885 16.7863295"></polygon>
                <polygon id="Path" points="32.4558321 16.8150756 34.0026859 16.9296718 34.0026859 19.0207603 34.0886654 20.0233795 36.29435 19.8801667 36.1797538 18.0755038 36.1797538 17.0442679 38.0417795 17.1588641 38.1563756 20.9114026 38.1563756 25.1509423 36.466309 25.1509423 36.3517128 23.1170872 36.2657333 21.4270205 34.3464744 21.341041 34.1458987 23.3462795 34.0600487 25.2369218 32.4558321 25.3515179 32.4558321 21.0832321"></polygon>
                <polygon id="Path" points="45.5756026 17.2447141 45.5756026 18.7342051 42.7683205 18.7055885 41.4505295 18.6197385 41.536509 20.1092295 43.7709397 20.0519962 43.8854064 21.4556372 41.9661474 21.5416167 41.9661474 23.2316833 44.8021756 23.6613218 45.6328359 23.7185551 45.7760487 25.4659846 41.3646795 25.3801346 40.3334436 25.3227718 40.1042513 20.2811885 40.0756346 16.872309 43.3697885 17.2447141"></polygon>
                <polygon id="Path" points="47.2942859 17.3593103 49.2707782 16.9869051 49.328141 20.2811885 49.413991 21.770809 50.9322282 20.0806128 52.7082744 22.3436603 52.7656372 18.9347808 52.9374667 16.9009256 54.828109 17.5025231 54.2551282 20.9400192 54.1692782 25.4373679 52.1066769 23.7473013 50.989591 22.6014692 49.7291628 24.0910897 47.9817333 25.4373679 47.6379449 20.6535936"></polygon>
                <polygon id="Path" points="70.6691821 25.2941551 72.1874192 25.2367923 72.1588026 22.1430846 72.2160359 19.8228038 73.9348487 22.6014692 75.6535321 25.3800051 77.6301538 25.5805808 77.6015372 20.8254231 77.4009615 16.8436923 75.6822782 16.7577128 75.5389359 19.6222282 75.3671064 22.0284885 74.3358705 20.3098051 72.7316538 17.2733308 70.8123949 17.2159679 70.841141 20.5676141 70.7265449 23.5753423"></polygon>
                <polygon id="Path" points="87.9138962 16.8436923 89.6611962 16.7577128 89.6325795 20.281059 89.4893667 23.0597244 91.9528603 23.1743205 93.3278846 23.0311077 93.1846718 25.4373679 89.9477513 25.1221962 87.9997462 25.179559 87.9711295 21.1118487"></polygon>
                <polygon id="Path" points="57.0911564 25.4088808 57.5207949 24.3202821 58.0650295 23.0026205 59.5832667 23.17445 59.7838423 21.8281718 58.7239897 21.8854051 58.0650295 21.8854051 58.6093936 19.6224872 58.2083718 16.700609 57.8645833 17.8176949 57.3775821 19.2500821 57.0911564 20.0521256 56.2889833 23.5754718 56.0885372 24.2344321 55.8021115 25.2656679"></polygon>
                <polygon id="Path" points="62.1901026 25.1510718 60.6145026 25.6666897 59.5832667 23.17445 59.7838423 21.8281718 58.6093936 19.6224872 58.151009 18.7057179 58.1796256 16.9870346 58.2082423 16.700609 59.8696923 19.6224872 61.5311423 23.2031962"></polygon>
                <path d="M68.9791154,0.601518449 C68.9504987,1.40360218 68.8931359,2.20567167 68.8645192,3.03639667 C68.9218821,3.06505218 69.0077321,3.09369474 69.1223282,3.15097987 C69.2369244,3.20827795 69.4661167,3.32286115 69.781159,3.60931269 C70.2395436,4.03900295 70.5259692,4.52597833 70.5545859,4.58326346 C70.7551615,4.95566859 70.8697577,5.32804782 71.09895,6.10148769 C71.2707795,6.70304628 71.356759,6.98951077 71.3853756,7.24731974 C71.442609,7.64835449 71.5285885,8.33585372 71.2993962,9.13793615 C71.2421628,9.36710256 70.926991,10.3410663 69.9817346,11.0858506 C69.695309,11.3150171 69.3229038,11.6014686 68.7499231,11.6873963 C68.3202846,11.7733369 67.9478795,11.6874092 67.7186872,11.6301112 L67.5754744,14.5520282 C67.6900705,14.5806449 67.8619,14.6092615 68.0624756,14.6092615 C69.0077321,14.6664949 69.7525423,14.4374321 70.2967769,14.2654731 C70.7837782,14.1222603 71.2421628,13.9790474 71.7863974,13.635259 C72.1874192,13.4061962 72.8749962,13.0050449 73.4192308,12.2030272 C74.0208282,11.3436596 74.1354244,10.4556365 74.2212744,9.59626897 C74.2786372,9.19522128 74.2786372,8.85147167 74.2786372,8.10668731 C74.2786372,7.50512872 74.249891,6.84627205 74.164041,5.52857167 C74.1352949,5.12753692 74.1354244,4.89837051 74.0780615,4.61191897 C74.0208282,4.32545449 73.9348487,3.8384791 73.7056564,3.32286115 C73.6484231,3.17963538 73.3618679,2.60671936 72.7316538,2.03380333 C71.9869731,1.3463041 71.2135462,1.08849642 70.6979282,0.91662291 C70.3255231,0.773393256 69.7239256,0.630163603 68.9791154,0.601518449 Z" id="Path"></path>
                <path d="M68.9791154,0.60155341 C68.9503692,1.40362808 68.8931359,2.23435308 68.8645192,3.03643551 C68.8357731,3.03643551 68.8071564,3.00779295 68.7499231,3.00779295 C68.6925603,2.97915038 68.4921141,2.95049487 68.2629218,2.95049487 C68.0051128,2.97913744 67.8045372,3.06507808 67.689941,3.15101872 C67.4608782,3.26560192 67.3176654,3.40882769 67.2030692,3.55205346 C67.1457064,3.60935154 66.9452603,3.83851795 66.6874513,4.26819526 C66.4868756,4.58330231 66.4008962,4.84111128 66.2576833,5.15621833 C66.0858538,5.58590859 65.9712577,5.95830077 65.8852782,6.21610974 C65.7706821,6.58851487 65.7134487,6.76038321 65.6562154,7.01819218 C65.6274692,7.19006051 65.5702359,7.50516756 65.5702359,7.90621526 C65.5702359,8.13536872 65.5702359,8.45047577 65.6562154,8.85151051 C65.7420654,9.30984333 65.9140244,9.62495038 65.9998744,9.85411679 C66.0858538,10.0259851 66.2290667,10.2838071 66.458259,10.5989012 C66.6300885,10.8280676 66.8306641,11.0858895 67.2030692,11.3436985 C67.4321321,11.4869242 67.604091,11.5728649 67.7473038,11.63015 L67.604091,14.5520282 C67.5181115,14.5234115 67.4035154,14.5234115 67.2889192,14.4946654 C67.1743231,14.4660487 66.8878974,14.4088154 66.6587051,14.3228359 C66.3150462,14.2082397 66.0572372,14.0364103 65.8566615,13.9218141 C65.7706821,13.8645808 65.4270231,13.6353885 65.0546179,13.2916 C64.9972551,13.2343667 64.6822128,12.9192078 64.3384244,12.4322324 C64.0519987,12.0025422 63.8801692,11.6588055 63.7655731,11.372341 C63.5936141,10.9999488 63.4790179,10.6561992 63.3931679,10.4270328 C63.1925923,9.82547423 63.1067423,9.36714141 63.0779962,9.16661756 C62.9921462,8.56505897 62.9634,8.07808359 62.9634,7.76297654 C62.9634,7.53381013 62.9921462,7.07549026 63.0779962,6.50257423 C63.1639756,6.01559885 63.2499551,5.70049179 63.4217846,5.07029064 C63.5936141,4.46873205 63.7369564,4.06768436 63.7941897,3.95310115 C63.9660192,3.49476833 64.0519987,3.23695936 64.2238282,2.95049487 C64.3098077,2.77862654 64.5103833,2.46351949 64.8540423,2.09112731 C64.9686385,1.9765441 65.3696603,1.57549641 66.028491,1.23175327 C66.5442385,0.973943 66.9738769,0.859359795 67.2603026,0.802068192 C67.6327077,0.658839833 68.2629218,0.572908256 68.9791154,0.60155341 Z" id="Path"></path>
                <path d="M68.8645192,3.03643551 L68.8359026,3.03643551 C68.8359026,3.03643551 68.8359026,3.03643551 68.8359026,3.00779295 C68.8359026,2.95050782 68.8359026,2.89320974 68.8645192,2.83592462 C68.8645192,2.77862654 68.8645192,2.72134141 68.8645192,2.6926859 L68.8645192,2.66404333 L68.8645192,2.63540077 C68.8359026,2.52081756 68.8645192,2.37759179 68.8931359,2.26300859 C68.9218821,2.14842538 68.8645192,2.03384218 68.8931359,1.91925897 L68.9218821,1.89061641 C68.9218821,1.83331833 68.9218821,1.77603321 68.9218821,1.71873513 C68.9218821,1.69009256 68.9218821,1.69009256 68.9218821,1.66143705 L68.9218821,1.63280744 C68.9218821,1.60415192 68.9218821,1.54685385 68.9504987,1.51821128 C68.9504987,1.54685385 68.9504987,1.57550936 68.9218821,1.60415192 C68.9218821,1.60415192 68.9218821,1.60415192 68.9218821,1.57550936 C68.9218821,1.43228359 68.9218821,1.28905135 68.9218821,1.14582299 C69.0077321,1.14582299 69.1223282,1.11717783 69.2083077,1.14582299 C69.2942872,1.17446944 69.3801372,1.23175974 69.4375,1.28905135 C69.4947333,1.34634295 69.52335,1.40364103 69.5520962,1.48958167 C69.6093295,1.63280744 69.6093295,1.77603321 69.6093295,1.91925897 C69.6093295,1.91925897 69.6093295,1.91925897 69.5807128,1.91925897 C69.5520962,1.97655705 69.52335,2.03384218 69.4947333,2.09112731 C69.4661167,2.17706795 69.4947333,2.29165115 69.4661167,2.37757885 C69.4375,2.43487692 69.4088833,2.46351949 69.3801372,2.52081756 C69.2083077,2.66404333 69.0364782,2.83592462 68.8645192,3.03643551 C68.8931359,3.00779295 68.8645192,3.00779295 68.8645192,3.03643551 Z" id="Path"></path>
                <polygon id="Path" points="9.31012821 25.3800051 10.7710673 25.265409 11.2293872 23.8331513 12.5471005 23.7185551 12.5471005 22.4295103 11.5731368 22.4867436 12.1747083 19.6508449 12.0601251 16.7863295 10.9715782 19.6508449 10.1695087 22.6013397"></polygon>
                <polygon id="Path" points="12.5470358 23.7185551 12.5470358 22.4295103 13.1199 22.3722769 12.7189041 21.1976987 12.1746436 19.6508449 12.0600604 16.7863295 12.3751545 17.4165436 12.9194279 18.4477795 14.3803282 21.8279128 15.3543308 25.2081756 14.2084987 25.3800051 14.0652859 25.2081756 13.4064551 23.7471718"></polygon>
                <path d="M65.6562154,20.1379756 L65.1405974,20.2525718 L65.1119808,19.3071859 L65.1405974,17.8463115 L65.4271526,17.8463115 L65.5130026,16.8436923 C65.4557692,16.8436923 65.3697897,16.8150756 65.2551936,16.8150756 C65.1119808,16.786459 64.710959,16.7577128 64.195341,16.786459 C64.0521282,16.786459 63.8515526,16.8150756 63.6224897,16.872309 L63.6224897,17.4739064 L63.6511064,19.4503987 L63.6797231,20.2811885 L63.7657026,23.3462795 L63.6224897,24.9503667 L65.2839397,25.3801346 L65.0833641,23.1457038 L65.0833641,22.0286179 L65.7421949,20.9114026 L65.6562154,20.1379756 Z" id="Path"></path>
                <path d="M67.5468577,25.2369218 L66.6302179,24.0910897 L65.770941,22.9738744 L65.0547474,22.0572346 L65.3411731,20.7394436 L65.5989821,20.1665923 C65.6275987,20.1665923 65.6563449,20.1665923 65.6849615,20.1379756 C65.7421949,20.109359 65.9427705,20.0519962 66.1146,19.9374 C66.3437923,19.7655705 66.4583885,19.5649949 66.4583885,19.5077615 C66.4870051,19.4503987 66.5729846,19.2213359 66.5729846,18.9347808 C66.5729846,18.8489308 66.5443679,18.6197385 66.4010256,18.3905462 C66.286559,18.2473333 66.1719628,18.1613538 66.1146,18.1041205 C65.856791,17.932291 65.5703654,17.8749282 65.3985359,17.8463115 L65.3697897,17.8463115 L65.2839397,17.7030987 L65.3985359,16.872309 L65.4843859,16.8436923 C65.5131321,16.8436923 65.5417487,16.872309 65.5703654,16.872309 C65.6563449,16.9009256 65.7421949,16.9296718 65.770941,16.9296718 C66.286559,17.0728846 66.4297718,17.1015013 66.6302179,17.1874808 C66.8594103,17.2733308 67.0026231,17.3306936 67.1745821,17.4739064 C67.432391,17.6743526 67.5468577,17.8749282 67.6042205,17.9895244 C67.6614538,18.0755038 67.8334128,18.3905462 67.8906462,18.8489308 C67.9192628,19.0207603 67.948009,19.3071859 67.8334128,19.6509744 C67.6902,20.109359 67.4896244,20.4530179 67.4036449,20.5389974 C67.1458359,20.8827859 66.6589641,21.2264449 66.6016013,21.255191 L67.0026231,21.7994256 L68.1484551,23.3176628 L69.093841,24.9791128 L67.5468577,25.2369218 Z" id="Path"></path>
                <path d="M82.7003538,25.5807103 C82.7289705,24.8931333 82.7863333,24.2056859 82.81495,23.518109 C82.8435667,23.518109 82.8721833,23.518109 82.9009295,23.518109 C82.9867795,23.518109 83.1873551,23.5468551 83.4165474,23.4894923 C83.4451641,23.4894923 83.5883769,23.432259 83.7315897,23.3748962 C84.0467615,23.2030667 84.218591,22.916641 84.3045705,22.7160654 C84.5050167,22.3150436 84.5337628,21.9426385 84.5623795,21.7134462 C84.5909962,21.3984038 84.5623795,21.1405949 84.5336333,21.0832321 C84.5050167,20.8541692 84.4191667,20.6822103 84.3904205,20.5389974 C84.3331872,20.4244013 84.2472077,20.2239551 84.0467615,19.8229333 C84.0180154,19.7655705 83.9321654,19.593741 83.7889526,19.3645487 C83.7315897,19.2499526 83.6743564,19.1639731 83.5883769,19.0493769 C83.5023974,18.9349103 83.4451641,18.8489308 83.3591846,18.7915679 C83.2445885,18.7057179 83.1299923,18.6771013 83.0441423,18.6483551 L83.2159718,16.8150756 C83.2445885,16.8150756 83.2733346,16.8150756 83.3305679,16.8436923 C83.4165474,16.872309 83.6743564,16.9296718 83.9893987,17.1301179 C84.2758244,17.3020769 84.4477833,17.5025231 84.5909962,17.6744821 C84.734209,17.8463115 84.8488051,18.018141 85.0492513,18.3905462 C85.2498269,18.7343346 85.3930397,18.9635269 85.4216564,19.0493769 C85.6222321,19.4217821 85.7368282,19.6223577 85.8514244,19.9374 C85.9372744,20.1665923 86.0518705,20.4244013 86.1092333,20.7968064 C86.13785,20.9114026 86.1664667,21.2265744 86.1664667,21.6562128 C86.13785,22.2004474 86.0232538,22.6302154 85.9372744,22.9452577 C85.7940615,23.3748962 85.6222321,23.6614513 85.5362526,23.7759179 C85.3071897,24.1483231 85.0493808,24.4061321 84.9920179,24.4634949 C84.8774218,24.578091 84.6196128,24.8359 84.1899744,25.0650923 C83.7889526,25.2941551 83.4451641,25.4087513 83.3591846,25.4087513 C83.1299923,25.5519641 82.9009295,25.5807103 82.7003538,25.5807103 Z" id="Path"></path>
                <path d="M83.3591846,24.3492872 L82.81495,23.5472436 C82.7863333,23.5472436 82.7291,23.5186269 82.6717372,23.5186269 C82.5857577,23.4898808 82.1847359,23.4040308 81.7837141,23.088859 C81.6977346,23.003009 81.2967128,22.6878372 81.06765,22.0862397 C80.9243077,21.6566013 80.9243077,21.3128128 80.9243077,21.2269628 C80.9530538,20.7399615 81.1248833,20.3961731 81.2394795,20.1669808 C81.4686718,19.7087256 81.7264808,19.4509167 81.9269269,19.250341 C82.2420987,18.9352987 82.4139282,18.8493192 82.5285244,18.8207026 C82.5857577,18.7920859 82.7577167,18.7347231 82.9581628,18.7347231 C82.986909,18.7347231 82.986909,18.7347231 83.0155256,18.7347231 L83.072759,18.5915103 L83.072759,18.5055308 L83.3019513,17.1018897 L83.1873551,16.9014436 C83.1587385,16.9014436 83.1301218,16.9014436 83.072759,16.9014436 C83.0155256,16.9014436 82.7863333,16.8728269 82.4999077,16.9300603 C82.1847359,16.9874231 81.9555436,17.0732731 81.8123308,17.1306359 C81.4686718,17.2738487 81.2108628,17.4170615 81.0389038,17.5602744 C80.9243077,17.6462538 80.7238615,17.7894667 80.5232859,18.018659 C80.2654769,18.3050846 80.1508808,18.5342769 80.0362846,18.7061064 C79.7784756,19.1357449 79.6638795,19.50815 79.6066462,19.765959 C79.4634333,20.2243436 79.4062,20.5967487 79.4062,20.7113449 C79.3488372,21.2555795 79.3774538,21.6852179 79.3774538,21.7711974 C79.4062,22.1722192 79.49205,22.487391 79.5780295,22.7452 C79.6926256,23.1748385 79.8358385,23.4898808 79.9218179,23.6904564 C80.0362846,23.9196487 80.1508808,24.2060744 80.3800731,24.5212462 C80.4946692,24.664459 80.6092654,24.8362885 80.8384577,25.0654808 C80.9530538,25.1513308 81.0962667,25.2946731 81.3540756,25.4378859 C81.4399256,25.4951192 81.7264808,25.6383321 82.0988859,25.6956949 C82.3279487,25.7243115 82.4999077,25.7243115 82.6431205,25.7243115 L82.6717372,25.6956949 L83.3591846,24.3492872 Z" id="Path"></path>
                <path d="M95.3045064,25.3801346 C95.7341449,24.8645167 96.1639128,24.3488987 96.5649346,23.8332808 C96.6221679,23.8046641 96.7367641,23.7760474 96.8513603,23.7186846 C97.1377859,23.6040885 97.68215,23.3750256 98.1117885,22.8594077 C98.2550013,22.6874487 98.4841936,22.3724064 98.5701731,21.8854051 C98.6274064,21.5416167 98.5414269,21.255191 98.4841936,21.0546154 C98.4555769,20.9401487 98.3123641,20.4531474 97.9112128,19.9661462 C97.5961705,19.593741 97.2811282,19.3931654 97.1951487,19.3359321 C96.9373397,19.1927192 96.6795308,19.1067397 96.5077013,19.0495064 L95.0753141,16.7292256 C95.1326769,16.7292256 95.1899103,16.7578423 95.2758897,16.7578423 C95.848741,16.9010551 96.2497628,17.0728846 96.4789551,17.1874808 C97.3955949,17.6172487 98.0545551,18.1901 98.1117885,18.2473333 C98.1117885,18.2473333 98.8279821,18.8775474 99.4008333,19.7655705 C99.687259,20.1953385 99.8018551,20.5103808 99.8592179,20.6249769 C99.9164513,20.7395731 100.002431,20.9401487 100.059664,21.1979577 C100.231623,21.8854051 100.059664,22.4870026 99.9738141,22.7448115 C99.8018551,23.3462795 99.4868128,23.7760474 99.2576205,24.0338564 C99.1430244,24.1770692 98.6560231,24.7213038 97.8539795,25.0364756 C97.3669782,25.2369218 96.9373397,25.2942846 96.5363179,25.3229013 C96.0493167,25.4374974 95.6196782,25.4088808 95.3045064,25.3801346 Z" id="Path"></path>
                <polygon id="Path" points="96.5077013 24.4634949 96.5649346 23.8334103 96.5077013 23.0886 96.4217218 21.169341 96.5077013 19.0781231 96.7941269 18.2474628 95.0753141 16.7578423 95.1326769 18.10425 95.2472731 21.3411705 95.3045064 23.6900679 95.3045064 25.3802641"></polygon>
            </g>
        </g>
    </g>
</svg>